<svg width="24" height="24" viewBox="0 0 24 24" fill="none" xmlns="http://www.w3.org/2000/svg">
<path d="M20.9806 1.99024C20.7208 1.99798 20.4742 2.10656 20.2931 2.29298L14.0001 8.58595V4.00001C14.0019 3.8663 13.9769 3.73359 13.9266 3.60971C13.8762 3.48584 13.8015 3.37332 13.7069 3.27881C13.6123 3.1843 13.4997 3.10973 13.3758 3.05949C13.2519 3.00925 13.1191 2.98438 12.9854 2.98634C12.7204 2.99022 12.4677 3.09917 12.283 3.28924C12.0982 3.47931 11.9965 3.73496 12.0001 4.00001V11C12.0001 11.2652 12.1055 11.5196 12.293 11.7071C12.4805 11.8946 12.7349 12 13.0001 12H20.0001C20.1326 12.0019 20.2642 11.9774 20.3871 11.928C20.5101 11.8786 20.622 11.8052 20.7164 11.7122C20.8108 11.6191 20.8857 11.5083 20.9368 11.386C20.988 11.2637 21.0143 11.1325 21.0143 11C21.0143 10.8675 20.988 10.7363 20.9368 10.614C20.8857 10.4918 20.8108 10.3809 20.7164 10.2878C20.622 10.1948 20.5101 10.1214 20.3871 10.072C20.2642 10.0226 20.1326 9.99813 20.0001 10H15.4141L21.7071 3.70704C21.8516 3.56658 21.9503 3.38574 21.9903 3.18822C22.0302 2.9907 22.0096 2.78571 21.9311 2.60013C21.8525 2.41454 21.7197 2.25701 21.5501 2.14818C21.3805 2.03935 21.182 1.9843 20.9806 1.99024ZM3.50008 12.5C3.36757 12.4981 3.23601 12.5226 3.11304 12.572C2.99007 12.6214 2.87815 12.6948 2.78378 12.7878C2.68941 12.8809 2.61448 12.9918 2.56333 13.114C2.51218 13.2363 2.48584 13.3675 2.48584 13.5C2.48584 13.6325 2.51218 13.7637 2.56333 13.886C2.61448 14.0083 2.68941 14.1191 2.78378 14.2122C2.87815 14.3052 2.99007 14.3786 3.11304 14.428C3.23601 14.4774 3.36757 14.5019 3.50008 14.5H8.08602L2.29305 20.293C2.19708 20.3851 2.12046 20.4955 2.06767 20.6176C2.01489 20.7397 1.987 20.8712 1.98565 21.0042C1.98429 21.1373 2.0095 21.2692 2.05979 21.3924C2.11008 21.5156 2.18444 21.6275 2.27852 21.7216C2.3726 21.8157 2.4845 21.89 2.60768 21.9403C2.73086 21.9906 2.86283 22.0158 2.99587 22.0144C3.12891 22.0131 3.26034 21.9852 3.38247 21.9324C3.5046 21.8796 3.61497 21.803 3.70711 21.707L9.50008 15.9141V20.5C9.49821 20.6325 9.52269 20.7641 9.57211 20.8871C9.62152 21.01 9.69488 21.1219 9.78792 21.2163C9.88097 21.3107 9.99184 21.3856 10.1141 21.4368C10.2364 21.4879 10.3676 21.5142 10.5001 21.5142C10.6326 21.5142 10.7638 21.4879 10.8861 21.4368C11.0083 21.3856 11.1192 21.3107 11.2122 21.2163C11.3053 21.1219 11.3787 21.01 11.4281 20.8871C11.4775 20.7641 11.502 20.6325 11.5001 20.5V13.5C11.5001 13.2348 11.3947 12.9805 11.2072 12.7929C11.0196 12.6054 10.7653 12.5 10.5001 12.5H3.50008Z" fill="#637394"/>
</svg>
