<svg width="48" height="48" viewBox="0 0 48 48" fill="none" xmlns="http://www.w3.org/2000/svg">
<g clip-path="url(#clip0_21_2686)">
<path d="M33.979 48H37.0592C37.2999 48 37.5042 47.8358 37.5562 47.6008C37.7897 46.5461 43.2819 21.6792 44.095 13.9449C44.1728 13.2052 43.9179 12.4669 43.3771 11.8663C42.6534 11.0626 41.5119 10.5826 40.324 10.5826C39.6294 10.5826 38.9553 10.7514 38.3691 11.0647L36.4845 26.9211C36.9223 27.6664 37.1525 28.463 37.1525 29.2913C37.1525 30.4734 36.6887 31.5919 35.8112 32.5867L33.979 48Z" fill="#637394"/>
<path d="M27.2646 10.5826C26.5884 10.5826 25.9324 10.7441 25.3574 11.0416V22.0415C26.4141 22.0991 27.4435 22.2238 28.4278 22.411L29.1413 11.0269C28.5732 10.7391 27.9289 10.5826 27.2646 10.5826Z" fill="#637394"/>
<path d="M22.6426 11.0414C22.0676 10.7439 21.4116 10.5825 20.7354 10.5825C20.071 10.5825 19.4266 10.7391 18.8589 11.0266L19.5724 22.4107C20.5567 22.2235 21.586 22.0988 22.6428 22.0412V11.0414H22.6426Z" fill="#637394"/>
<path d="M13.5635 29.2913C13.5635 31.4497 18.0268 33.8639 24.0002 33.8639C29.9736 33.8639 34.4372 31.4497 34.4372 29.2913C34.4372 27.1329 29.9738 24.7187 24.0002 24.7187C18.027 24.7187 13.5635 27.1328 13.5635 29.2913Z" fill="#637394"/>
<path d="M35.6407 11.012C35.0801 10.7341 34.447 10.5826 33.7941 10.5826C33.1076 10.5826 32.4414 10.7483 31.8599 11.0547L31.104 23.1146C31.7569 23.3399 32.3754 23.5967 32.9497 23.8856C33.3383 24.0809 33.6989 24.2891 34.0367 24.5065L35.6407 11.012Z" fill="#637394"/>
<path d="M9.6312 11.0647C9.04502 10.7514 8.37092 10.5826 7.67629 10.5826C6.48825 10.5826 5.34676 11.0625 4.6232 11.8663C4.08244 12.4669 3.82757 13.2052 3.9053 13.9451C4.71839 21.6794 10.2106 46.5461 10.4441 47.6008C10.4962 47.8358 10.7005 48 10.9411 48H14.0213L12.1893 32.5863C11.312 31.5916 10.8483 30.4731 10.8483 29.2913C10.8483 28.4632 11.0783 27.6667 11.516 26.9215L9.6312 11.0647Z" fill="#637394"/>
<path d="M14.206 10.5826C13.5532 10.5826 12.92 10.7342 12.3594 11.012L13.9633 24.5065C14.301 24.2891 14.6616 24.0809 15.0504 23.8854C15.6245 23.5967 16.2432 23.3399 16.8959 23.1146L16.1401 11.0547C15.5586 10.7483 14.8925 10.5826 14.206 10.5826Z" fill="#637394"/>
<path d="M16.7558 48H18.4557L17.686 35.7193C16.7889 35.456 15.9485 35.1352 15.1821 34.7602L16.7558 48Z" fill="#637394"/>
<path d="M7.67616 8.20687C8.8364 8.20687 9.96771 8.51103 10.941 9.07491C11.9142 8.51103 13.0455 8.20687 14.2058 8.20687C15.3659 8.20687 16.4972 8.51103 17.4706 9.07507C18.4438 8.51103 19.5751 8.20687 20.7352 8.20687C21.8955 8.20687 23.0268 8.51103 24 9.07491C24.9733 8.51103 26.1046 8.20687 27.2648 8.20687C28.4249 8.20687 29.5562 8.51103 30.5295 9.07507C31.5029 8.51103 32.6342 8.20687 33.7943 8.20687C34.9545 8.20687 36.0859 8.51103 37.0591 9.07491C38.0324 8.51103 39.1637 8.20687 40.3239 8.20687C40.7325 8.20687 41.1381 8.24663 41.5356 8.31936C41.5323 8.31612 41.5289 8.31257 41.5259 8.30934C41.3059 8.08534 41.0787 7.85358 40.984 7.6973C40.9272 7.59677 40.8445 7.26045 40.7895 7.03806C40.5953 6.24954 40.3294 5.16978 39.3838 4.40323C38.6014 3.76873 37.6676 3.68065 36.9174 3.61002C36.6085 3.58109 36.1854 3.54101 36.0492 3.47265C35.9459 3.40671 35.7085 3.12533 35.5512 2.93899C35.0851 2.38691 34.4467 1.63119 33.4507 1.30214C32.539 1.00105 31.6655 1.19418 30.9634 1.34917C30.6863 1.41042 30.2669 1.50335 30.1432 1.48186C30.0219 1.44388 29.7117 1.22068 29.5065 1.07297C28.9096 0.643553 28.1668 0.109088 27.1714 0.0137345C26.2203 -0.0770938 25.4142 0.290745 24.7656 0.586664C24.5145 0.70125 24.1347 0.874341 24.0033 0.881614C23.8656 0.874503 23.4856 0.701089 23.2341 0.586664C22.5854 0.290745 21.7773 -0.076609 20.8282 0.0138962C19.8329 0.10925 19.09 0.643553 18.4931 1.07297C18.2879 1.22068 17.9776 1.44388 17.8716 1.47814C17.7313 1.50303 17.3135 1.41042 17.0362 1.34917C16.3343 1.19369 15.4607 1.00105 14.5494 1.30214C13.5535 1.63087 12.9151 2.38675 12.4488 2.93883C12.2916 3.12485 12.054 3.40638 11.9642 3.46505C11.8145 3.54101 11.3916 3.58093 11.0827 3.60986C10.3325 3.68065 9.39899 3.76857 8.61693 4.40275C7.67099 5.16962 7.40497 6.24938 7.21086 7.03758C7.15608 7.26012 7.07317 7.59645 7.01741 7.69519C6.92141 7.85358 6.69418 8.08534 6.47438 8.30934C6.47131 8.31257 6.46791 8.31596 6.46484 8.31919C6.86193 8.24679 7.26759 8.20687 7.67616 8.20687Z" fill="#637394"/>
<path d="M31.2443 48L32.818 34.7602C32.0516 35.1352 31.2112 35.456 30.314 35.7191L29.5444 48H31.2443Z" fill="#637394"/>
<path d="M26.8241 48L27.556 36.3197C26.8411 36.426 26.106 36.5004 25.3574 36.5411V48H26.8241Z" fill="#637394"/>
<path d="M22.6425 48V36.5411C21.8939 36.5004 21.1588 36.426 20.4438 36.3197L21.176 48H22.6425Z" fill="#637394"/>
</g>
<defs>
<clipPath id="clip0_21_2686">
<rect width="48" height="48" fill="white"/>
</clipPath>
</defs>
</svg>
