<svg width="24" height="24" viewBox="0 0 24 24" fill="none" xmlns="http://www.w3.org/2000/svg">
<path d="M12 2C7.313 2 3.5 5.813 3.5 10.5C3.5 12.518 4.2245 14.4765 5.5465 16.024C5.6975 16.1955 9.26 20.2435 10.45 21.378C10.8845 21.7925 11.442 22 12 22C12.558 22 13.1155 21.7925 13.5505 21.378C14.934 20.0585 18.3125 16.1855 18.4605 16.0155C19.7755 14.4765 20.5 12.518 20.5 10.5C20.5 5.813 16.687 2 12 2ZM12 13C10.6195 13 9.5 11.8805 9.5 10.5C9.5 9.1195 10.6195 8 12 8C13.3805 8 14.5 9.1195 14.5 10.5C14.5 11.8805 13.3805 13 12 13Z" fill="#637394"/>
</svg>
