<svg width="24" height="24" viewBox="0 0 24 24" fill="none" xmlns="http://www.w3.org/2000/svg">
<path d="M12 1.99902C6.486 1.99902 2 6.48502 2 11.999C2 13.5925 2.38571 15.1715 3.11621 16.585L2.0459 20.4141C1.9254 20.8481 2.04819 21.3153 2.36719 21.6338C2.60469 21.8713 2.92495 22 3.25195 22C3.36445 22 3.47591 21.9851 3.58691 21.9541L7.41797 20.8848C8.83147 21.6148 10.4085 21.999 12 21.999C17.514 21.999 22 17.513 22 11.999C22 6.48502 17.514 1.99902 12 1.99902ZM10.25 6.5H13.25C13.664 6.5 14 6.8355 14 7.25V8.5C14 9.548 13.536 10.5317 12.7275 11.1992C12.588 11.3147 12.419 11.3711 12.251 11.3711C12.0345 11.3711 11.8199 11.2781 11.6719 11.0986C11.4079 10.7791 11.453 10.307 11.7725 10.043C12.235 9.66147 12.5 9.099 12.5 8.5V8H10.25C9.836 8 9.5 7.6645 9.5 7.25C9.5 6.8355 9.836 6.5 10.25 6.5ZM15.75 6.5C16.164 6.5 16.5 6.8355 16.5 7.25V9H17.25C17.664 9 18 9.3355 18 9.75C18 10.1645 17.664 10.5 17.25 10.5H16.5V13.75C16.5 14.1645 16.164 14.5 15.75 14.5C15.336 14.5 15 14.1645 15 13.75V7.25C15 6.8355 15.336 6.5 15.75 6.5ZM9.25 9C9.5605 9 9.8387 9.19097 9.9502 9.48047L12.4502 15.9805C12.5987 16.3675 12.4056 16.8017 12.0186 16.9502C11.9301 16.9842 11.84 17 11.75 17C11.4485 17 11.1643 16.8166 11.0498 16.5186L10.4658 15H8.03418L7.4502 16.5195C7.3012 16.9065 6.86595 17.0992 6.48145 16.9502C6.09495 16.8017 5.9013 16.3679 6.0498 15.9814L8.5498 9.48145C8.6613 9.19145 8.9395 9 9.25 9ZM9.25 11.8398L8.61133 13.5H9.88867L9.25 11.8398Z" fill="#637394"/>
</svg>
