<svg width="24" height="24" viewBox="0 0 24 24" fill="none" xmlns="http://www.w3.org/2000/svg">
<path d="M17.9952 6.00043C17.7354 6.00818 17.4888 6.11676 17.3077 6.30317L9.01468 14.5961L5.72172 11.3032C5.62957 11.2072 5.5192 11.1306 5.39707 11.0778C5.27495 11.025 5.14351 10.9971 5.01047 10.9958C4.87743 10.9944 4.74546 11.0196 4.62228 11.0699C4.4991 11.1202 4.3872 11.1946 4.29312 11.2886C4.19904 11.3827 4.12468 11.4946 4.07439 11.6178C4.0241 11.741 3.9989 11.8729 4.00025 12.006C4.0016 12.139 4.02949 12.2705 4.08227 12.3926C4.13506 12.5147 4.21168 12.6251 4.30765 12.7172L8.30765 16.7172C8.4952 16.9047 8.74951 17.01 9.01468 17.01C9.27986 17.01 9.53417 16.9047 9.72172 16.7172L18.7217 7.71723C18.8662 7.57677 18.9649 7.39593 19.0049 7.19841C19.0448 7.00089 19.0242 6.7959 18.9456 6.61032C18.8671 6.42473 18.7343 6.2672 18.5647 6.15838C18.3951 6.04955 18.1966 5.99449 17.9952 6.00043Z" fill="#637394"/>
</svg>
