<svg width="352" height="38" viewBox="0 0 352 38" fill="none" xmlns="http://www.w3.org/2000/svg">
<path d="M18.7733 18.7733C18.7733 29.1416 10.3682 37.5467 0 37.5467V1.52611e-05C10.3682 1.52611e-05 18.7733 8.40512 18.7733 18.7733Z" fill="#0A1445"/>
<circle cx="32.3013" cy="18.7733" r="5.632" fill="#0A1445"/>
<circle cx="51.4609" cy="18.7733" r="5.632" fill="#0A1445"/>
<circle cx="70.6208" cy="18.7733" r="5.632" fill="#0A1445"/>
<circle cx="89.7807" cy="18.7733" r="5.632" fill="#0A1445"/>
<circle cx="108.941" cy="18.7733" r="5.632" fill="#0A1445"/>
<circle cx="128.1" cy="18.7733" r="5.632" fill="#0A1445"/>
<circle cx="147.26" cy="18.7733" r="5.632" fill="#0A1445"/>
<circle cx="166.42" cy="18.7733" r="5.632" fill="#0A1445"/>
<circle cx="185.58" cy="18.7733" r="5.632" fill="#0A1445"/>
<circle cx="204.74" cy="18.7733" r="5.632" fill="#0A1445"/>
<circle cx="223.9" cy="18.7733" r="5.632" fill="#0A1445"/>
<circle cx="243.059" cy="18.7733" r="5.632" fill="#0A1445"/>
<circle cx="262.219" cy="18.7733" r="5.632" fill="#0A1445"/>
<circle cx="281.379" cy="18.7733" r="5.632" fill="#0A1445"/>
<circle cx="300.539" cy="18.7733" r="5.632" fill="#0A1445"/>
<circle cx="319.699" cy="18.7733" r="5.632" fill="#0A1445"/>
<path d="M333.227 18.7733C333.227 8.4051 341.632 -9.06419e-07 352 0L352 37.5467C341.632 37.5467 333.227 29.1416 333.227 18.7733Z" fill="#0A1445"/>
</svg>
