<svg width="24" height="24" viewBox="0 0 24 24" fill="none" xmlns="http://www.w3.org/2000/svg">
<path d="M12.5185 4.208C12.229 3.9305 11.7715 3.9305 11.482 4.208L5.732 9.708C5.5105 9.92 5.4405 10.245 5.5545 10.5295C5.6685 10.814 5.9435 11 6.25 11H17.75C18.056 11 18.332 10.8135 18.4465 10.5295C18.5605 10.2455 18.49 9.92 18.269 9.708L12.5185 4.208ZM17.75 13H6.25C5.9435 13 5.668 13.1865 5.554 13.4705C5.44 13.7545 5.5105 14.08 5.7315 14.292L11.4815 19.792C11.6265 19.9305 11.813 20 12 20C12.187 20 12.3735 19.9305 12.5185 19.792L18.2685 14.292C18.4895 14.08 18.56 13.755 18.446 13.4705C18.332 13.1865 18.056 13 17.75 13Z" fill="#637394"/>
</svg>
