<svg width="22" height="22" viewBox="0 0 22 22" fill="none" xmlns="http://www.w3.org/2000/svg">
<path d="M2.91172 18.7885C2.93418 18.7908 2.9571 18.7917 2.97956 18.7917C3.30406 18.7917 3.58822 18.563 3.65331 18.2389C4.61489 13.4283 9.6286 13.0859 11.9166 13.1922V16.7292C11.9166 17.0069 12.0839 17.2576 12.341 17.3644C12.5977 17.4703 12.8933 17.4121 13.0904 17.2155L19.5071 10.7988C19.7756 10.5307 19.7756 10.0948 19.5071 9.82668L13.0904 3.41001C12.8938 3.21338 12.5981 3.15426 12.341 3.26105C12.0839 3.36692 11.9166 3.61763 11.9166 3.89584V7.42272C9.33481 7.76005 2.2916 9.47238 2.2916 18.1042C2.2916 18.4576 2.55972 18.7536 2.91172 18.7885Z" fill="white"/>
</svg>
