<svg width="6" height="6" viewBox="0 0 6 6" fill="none" xmlns="http://www.w3.org/2000/svg">
<path d="M4.37276 1.37134C4.3067 1.3729 4.24394 1.40055 4.1982 1.44824L2.99996 2.64649L1.80172 1.44824C1.77839 1.42427 1.75049 1.40521 1.71967 1.39221C1.68885 1.37921 1.65573 1.37253 1.62227 1.37256C1.57256 1.37262 1.524 1.3875 1.48278 1.4153C1.44157 1.4431 1.40957 1.48255 1.39089 1.52862C1.37221 1.57468 1.36768 1.62527 1.37789 1.67393C1.3881 1.72258 1.41258 1.76709 1.4482 1.80176L2.64644 3L1.4482 4.19824C1.42421 4.22128 1.40505 4.24887 1.39186 4.2794C1.37866 4.30994 1.37169 4.3428 1.37135 4.37606C1.37101 4.40932 1.37731 4.44231 1.38989 4.4731C1.40246 4.5039 1.42105 4.53187 1.44457 4.55539C1.46809 4.57891 1.49606 4.5975 1.52686 4.61008C1.55765 4.62265 1.59065 4.62895 1.62391 4.62861C1.65717 4.62827 1.69003 4.6213 1.72056 4.60811C1.75109 4.59491 1.77868 4.57575 1.80172 4.55176L2.99996 3.35352L4.1982 4.55176C4.22124 4.57575 4.24883 4.59491 4.27936 4.60811C4.3099 4.6213 4.34275 4.62827 4.37601 4.62861C4.40927 4.62895 4.44227 4.62265 4.47306 4.61008C4.50386 4.59751 4.53183 4.57892 4.55535 4.5554C4.57887 4.53188 4.59746 4.5039 4.61004 4.4731C4.62261 4.44231 4.62891 4.40932 4.62857 4.37606C4.62823 4.3428 4.62126 4.30994 4.60806 4.2794C4.59487 4.24887 4.57571 4.22128 4.55172 4.19824L3.35348 3L4.55172 1.80176C4.5881 1.76688 4.61308 1.72181 4.6234 1.67248C4.63372 1.62315 4.62889 1.57185 4.60954 1.52531C4.59019 1.47877 4.55723 1.43916 4.51497 1.41169C4.47272 1.38421 4.42315 1.37015 4.37276 1.37134Z" fill="#637394"/>
</svg>
